# xmcd
#
# Track frame offsets:
#	150
#	17922
#	40987
#	53952
#	71502
#	93810
#	110987
#	126250
#	149402
#	169910
#	182827
#	196957
#	213720
#	235740
#
# Disc length: 3355 seconds
# Revision: 2
# Processed by: cddbd v1.5.2PL0 Copyright (c) Steve Scherf et al.
# Submitted via: dBpowerAMP V12.0
#
DISCID=d50d190e
DTITLE=Various Artist - Northwest Harmonica Showcase
DYEAR=1997
DGENRE=Blues
TTITLE0=Mike Moothart - Highballin'
TTITLE1=Mark Dufresne - Lyin' Train
TTITLE2=Mark Graham - Blue Adder
TTITLE3=Steve Bailey - That's Tough
TTITLE4=John Marshall - Mississippi Mailbox
TTITLE5=Mike Lynch - Scufflin'
TTITLE6=Grant Dermody - Depot Blues
TTITLE7=John Marshall - 206 Blues
TTITLE8=Doug Caulkins and Davie Ray Prez - Watch Out Baby
TTITLE9=Mark Graham - Hoof In Mouth
TTITLE10=Steve Bailey - Junior B's Boogie
TTITLE11=Paul Green - Long Distance Blues
TTITLE12=Mike Moothart - Alyxandrea
TTITLE13=Mark Dufresne - Wah Wah Blues
EXTD=
EXTT0=
EXTT1=
EXTT2=
EXTT3=
EXTT4=
EXTT5=
EXTT6=
EXTT7=
EXTT8=
EXTT9=
EXTT10=
EXTT11=
EXTT12=
EXTT13=
PLAYORDER=
